<?xml version="1.0" encoding="UTF-8"?>
<!DOCTYPE svg PUBLIC "-//W3C//DTD SVG 1.1//EN" "http://www.w3.org/Graphics/SVG/1.1/DTD/svg11.dtd">
<!-- Creator: CorelDRAW -->
<svg xmlns="http://www.w3.org/2000/svg" xml:space="preserve" width="1.70666in" height="1.70666in" version="1.1" style="shape-rendering:geometricPrecision; text-rendering:geometricPrecision; image-rendering:optimizeQuality; fill-rule:evenodd; clip-rule:evenodd"
viewBox="0 0 1706.66 1706.66"
 xmlns:xlink="http://www.w3.org/1999/xlink"
 xmlns:xodm="http://www.corel.com/coreldraw/odm/2003">
 <defs>
  <style type="text/css">
   <![CDATA[
    .fil0 {fill:url(#id0)}
   ]]>
  </style>
  <linearGradient id="id0" gradientUnits="userSpaceOnUse" x1="181.54" y1="853.33" x2="1525.13" y2="853.33">
   <stop offset="0" style="stop-opacity:1; stop-color:#FFB800"/>
   <stop offset="1" style="stop-opacity:1; stop-color:#FF5329"/>
  </linearGradient>
 </defs>
 <g id="Layer_x0020_1">
  <metadata id="CorelCorpID_0Corel-Layer"/>
  <path class="fil0" d="M1210.2 1706.65l-977.65 0c-28.13,0 -51.03,-22.9 -51.03,-51.05l0 -1168.89c-0.14,-5.8 1.64,-10.62 5.87,-14.93l188.14 -188.13c8.45,-8.45 23.36,-5.86 38.85,-5.86l0 -226.75c0,-28.14 22.89,-51.03 51.03,-51.03l1008.67 0c28.13,0 51.06,22.89 51.06,51.03l0 1326.79c0,28.15 -22.91,51.05 -51.06,51.05l-212.85 0 0 226.72c0,28.15 -22.89,51.05 -51.04,51.05zm-755.81 -1428.87l755.81 0c27.88,0.17 51.05,22.31 51.05,51.03l0 1060.07 212.83 0c5.98,0 11.04,-5.06 11.04,-11.04l0 -1326.79c0,-5.98 -5.06,-11.03 -11.04,-11.03l-1008.67 0c-5.98,0 -11.03,5.06 -11.03,11.03l0 226.73zm1.1 1153.18c-10.52,0 -51.84,-29.22 -32.5,-50.09 10.44,-11.26 22.41,-6.52 31.96,2.35 16.09,-16.09 34.46,-42.24 52.49,-24.19 19.33,19.35 -13.22,41.59 -37.8,66.1 -3.89,3.86 -9,5.84 -14.14,5.84zm0 -319.87c-10.52,0 -51.84,-29.22 -32.5,-50.09 10.44,-11.26 22.41,-6.52 31.96,2.35 16.09,-16.09 34.46,-42.24 52.49,-24.19 19.33,19.35 -13.22,41.59 -37.8,66.1 -3.89,3.86 -9,5.84 -14.14,5.84zm0 -319.87c-10.55,0 -51.83,-29.26 -32.49,-50.11 10.44,-11.25 22.41,-6.51 31.96,2.36 16.06,-16.06 34.45,-42.23 52.49,-24.19 19.35,19.35 -13.26,41.61 -37.81,66.1 -3.9,3.89 -9.01,5.84 -14.15,5.84zm446.05 -262.81l-323.87 0c-26.33,0 -26.33,-40 0,-40l323.86 0c26.33,0 26.33,40 0.02,40zm-352.08 967.6l-167.94 0c-11.04,0 -20,-8.97 -20,-20l0 -167.93c0,-11.04 8.96,-20 20,-20l167.93 0c11.04,0 20,8.97 20,20l0 167.93c0.02,11.04 -8.94,20 -19.98,20zm-147.94 -40l127.93 0 0 -127.92 -127.93 0 0 127.92zm659.73 18.02l-327.85 0c-26.33,0 -26.33,-40 0,-40l327.85 0c26.33,0 26.33,40 0,40zm0 -123.94l-375.84 0c-26.33,0 -26.33,-40 0,-40l375.84 0c26.33,0 26.33,40 0,40zm-511.78 -173.94l-167.94 0c-11.04,0 -20,-8.97 -20,-20l0 -167.93c0,-11.04 8.96,-20 20,-20l167.93 0c11.04,0 20,8.97 20,20l0 167.93c0.02,11.04 -8.94,20 -19.98,20zm-147.94 -40.02l127.93 0 0 -127.92 -127.93 0 0 127.92zm659.73 18.03l-327.85 0c-26.33,0 -26.33,-40 0,-40l327.85 0c26.33,0 26.33,40 0,40zm0 -123.96l-375.84 0c-26.33,0 -26.33,-40 0,-40l375.84 0c26.33,0 26.33,40 0,40zm-511.78 -173.93l-167.94 0c-11.04,0 -20,-8.96 -20,-20l0 -167.93c0,-11.04 8.96,-20 20,-20l167.93 0c11.04,0 20,8.96 20,20l0 167.93c0.02,11.06 -8.94,20 -19.98,20zm-147.94 -39.98l127.93 0 0 -127.93 -127.93 0 0 127.93zm659.73 18l-327.85 0c-26.33,0 -26.33,-40 0,-40l327.85 0c26.33,0 26.33,40 0,40zm0 -123.95l-375.84 0c-26.33,0 -26.33,-40 0,-40l375.84 0c26.33,0 26.33,40 0,40zm-671.56 -204.41l-168.15 0 0 1149.68c0,5.98 5.06,11.04 11.03,11.04l977.65 0c5.98,0 11.03,-5.06 11.03,-11.04l0 -1326.79c0,-5.98 -5.04,-11.03 -11.03,-11.03l-800.53 -0.01 0 168.15c0,11.05 -8.94,20 -20,20zm-139.85 -40.02l119.85 0.02 0 -119.86 -119.85 119.85z"/>
 </g>
</svg>
